<svg width="114" height="38" viewBox="0 0 114 38" fill="none" xmlns="http://www.w3.org/2000/svg">
<rect width="114" height="38" rx="12" fill="white"/>
<path d="M22.2663 17.5646C22.1894 17.3153 22.0832 17.0922 21.9478 16.8952C21.8155 16.6952 21.6554 16.5244 21.4677 16.3828C21.283 16.2412 21.0707 16.1351 20.8306 16.0643C20.5906 15.9904 20.329 15.9535 20.0458 15.9535C19.538 15.9535 19.0856 16.0812 18.6886 16.3366C18.2915 16.5921 17.9792 16.9676 17.7514 17.4631C17.5268 17.9555 17.4144 18.5556 17.4144 19.2635C17.4144 19.9775 17.5268 20.5823 17.7514 21.0778C17.9761 21.5733 18.2885 21.9503 18.6886 22.2088C19.0887 22.4643 19.5534 22.592 20.0827 22.592C20.5629 22.592 20.9783 22.4996 21.3292 22.315C21.6831 22.1303 21.9555 21.8687 22.1463 21.5302C22.3371 21.1886 22.4325 20.7885 22.4325 20.3299L22.8203 20.3899H20.2536V19.0511H24.0898V20.1868C24.0898 20.9962 23.9175 21.6964 23.5728 22.2873C23.2281 22.8782 22.7541 23.3337 22.1509 23.6538C21.5477 23.9708 20.8552 24.1293 20.0735 24.1293C19.2025 24.1293 18.4377 23.9338 17.7791 23.543C17.1236 23.149 16.6112 22.5904 16.2418 21.8672C15.8756 21.1409 15.6925 20.2791 15.6925 19.282C15.6925 18.5187 15.8002 17.837 16.0156 17.2369C16.2341 16.6367 16.5388 16.1274 16.9297 15.7088C17.3205 15.2872 17.7791 14.9671 18.3054 14.7486C18.8317 14.527 19.4041 14.4162 20.0227 14.4162C20.5459 14.4162 21.0337 14.4931 21.4862 14.647C21.9386 14.7978 22.3402 15.0133 22.6911 15.2933C23.045 15.5734 23.3358 15.9058 23.5636 16.2905C23.7913 16.6752 23.9406 17.0999 24.0114 17.5646H22.2663ZM27.9852 24.1385C27.2927 24.1385 26.6926 23.9862 26.1848 23.6815C25.6769 23.3768 25.283 22.9505 25.0029 22.4027C24.7259 21.8549 24.5875 21.2147 24.5875 20.4822C24.5875 19.7498 24.7259 19.1081 25.0029 18.5572C25.283 18.0063 25.6769 17.5785 26.1848 17.2738C26.6926 16.9691 27.2927 16.8168 27.9852 16.8168C28.6777 16.8168 29.2778 16.9691 29.7856 17.2738C30.2934 17.5785 30.6858 18.0063 30.9628 18.5572C31.2429 19.1081 31.3829 19.7498 31.3829 20.4822C31.3829 21.2147 31.2429 21.8549 30.9628 22.4027C30.6858 22.9505 30.2934 23.3768 29.7856 23.6815C29.2778 23.9862 28.6777 24.1385 27.9852 24.1385ZM27.9944 22.7997C28.3699 22.7997 28.6838 22.6966 28.9362 22.4904C29.1885 22.2811 29.3763 22.0011 29.4994 21.6502C29.6256 21.2994 29.6887 20.9085 29.6887 20.4776C29.6887 20.0437 29.6256 19.6513 29.4994 19.3004C29.3763 18.9465 29.1885 18.6649 28.9362 18.4556C28.6838 18.2463 28.3699 18.1417 27.9944 18.1417C27.6097 18.1417 27.2896 18.2463 27.0342 18.4556C26.7818 18.6649 26.5925 18.9465 26.4664 19.3004C26.3433 19.6513 26.2817 20.0437 26.2817 20.4776C26.2817 20.9085 26.3433 21.2994 26.4664 21.6502C26.5925 22.0011 26.7818 22.2811 27.0342 22.4904C27.2896 22.6966 27.6097 22.7997 27.9944 22.7997ZM35.8047 14.5455L38.2653 21.9872H38.3622L40.8182 14.5455H42.7017L39.3686 24H37.2543L33.9258 14.5455H35.8047ZM43.0932 24V16.9091H44.7643V24H43.0932ZM43.9334 15.9027C43.6687 15.9027 43.4409 15.815 43.2501 15.6396C43.0593 15.4611 42.9639 15.2472 42.9639 14.9979C42.9639 14.7455 43.0593 14.5316 43.2501 14.3562C43.4409 14.1777 43.6687 14.0884 43.9334 14.0884C44.2011 14.0884 44.4289 14.1777 44.6166 14.3562C44.8074 14.5316 44.9028 14.7455 44.9028 14.9979C44.9028 15.2472 44.8074 15.4611 44.6166 15.6396C44.4289 15.815 44.2011 15.9027 43.9334 15.9027ZM45.7028 24V16.9091H47.3232V18.0909H47.3971C47.5263 17.6816 47.7479 17.3661 48.0618 17.1445C48.3788 16.9199 48.7404 16.8075 49.1467 16.8075C49.239 16.8075 49.3421 16.8121 49.456 16.8214C49.573 16.8275 49.6699 16.8383 49.7468 16.8537V18.391C49.6761 18.3664 49.5637 18.3448 49.4098 18.3263C49.259 18.3048 49.1128 18.294 48.9713 18.294C48.6666 18.294 48.3927 18.3602 48.1495 18.4925C47.9095 18.6218 47.7202 18.8018 47.5817 19.0327C47.4432 19.2635 47.374 19.5297 47.374 19.8313V24H45.7028ZM51.9906 24.1431C51.5413 24.1431 51.1366 24.0631 50.7765 23.9031C50.4195 23.7399 50.1363 23.4999 49.9271 23.1829C49.7209 22.8659 49.6178 22.475 49.6178 22.0103C49.6178 21.6102 49.6916 21.2794 49.8394 21.0178C49.9871 20.7562 50.1887 20.5469 50.4441 20.3899C50.6996 20.233 50.9873 20.1145 51.3074 20.0344C51.6305 19.9513 51.9645 19.8913 52.3092 19.8544C52.7247 19.8113 53.0617 19.7728 53.3202 19.739C53.5787 19.7021 53.7664 19.6467 53.8834 19.5728C54.0034 19.4959 54.0634 19.3774 54.0634 19.2173V19.1896C54.0634 18.8419 53.9603 18.5726 53.7541 18.3817C53.5479 18.1909 53.2509 18.0955 52.8631 18.0955C52.4538 18.0955 52.1291 18.1848 51.8891 18.3633C51.6521 18.5418 51.4921 18.7526 51.409 18.9957L49.8486 18.7741C49.9717 18.3433 50.1748 17.9832 50.458 17.6939C50.7411 17.4015 51.0873 17.183 51.4967 17.0384C51.906 16.8906 52.3584 16.8168 52.8539 16.8168C53.1955 16.8168 53.5356 16.8568 53.8742 16.9368C54.2127 17.0168 54.522 17.1491 54.8021 17.3338C55.0821 17.5154 55.3068 17.7631 55.4761 18.0771C55.6484 18.391 55.7346 18.7834 55.7346 19.2543V24H54.1281V23.0259H54.0727C53.9711 23.2229 53.828 23.4076 53.6433 23.5799C53.4617 23.7492 53.2325 23.8861 52.9555 23.9908C52.6816 24.0923 52.36 24.1431 51.9906 24.1431ZM52.4246 22.9151C52.76 22.9151 53.0509 22.849 53.2971 22.7166C53.5433 22.5812 53.7326 22.4027 53.8649 22.1811C54.0003 21.9595 54.068 21.7179 54.068 21.4563V20.6207C54.0157 20.6638 53.9265 20.7038 53.8003 20.7408C53.6772 20.7777 53.5387 20.81 53.3848 20.8377C53.2309 20.8654 53.0786 20.89 52.9278 20.9116C52.777 20.9331 52.6462 20.9516 52.5354 20.967C52.2861 21.0008 52.063 21.0562 51.866 21.1332C51.669 21.2101 51.5136 21.3178 51.3997 21.4563C51.2858 21.5917 51.2289 21.7672 51.2289 21.9826C51.2289 22.2904 51.3412 22.5227 51.5659 22.6797C51.7906 22.8366 52.0768 22.9151 52.4246 22.9151ZM58.3062 14.5455V24H56.635V14.5455H58.3062Z" fill="#3D4633"/>
<rect x="75" y="5" width="33" height="28" rx="9" fill="#1E1E1E"/>
<rect x="75" y="5" width="33" height="28" rx="9" fill="url(#paint0_linear_10_42)"/>
<path d="M98.7071 19.7071C99.0976 19.3166 99.0976 18.6834 98.7071 18.2929L92.3431 11.9289C91.9526 11.5384 91.3195 11.5384 90.9289 11.9289C90.5384 12.3195 90.5384 12.9526 90.9289 13.3431L96.5858 19L90.9289 24.6569C90.5384 25.0474 90.5384 25.6805 90.9289 26.0711C91.3195 26.4616 91.9526 26.4616 92.3431 26.0711L98.7071 19.7071ZM85 20H98V18H85V20Z" fill="white"/>
<defs>
<linearGradient id="paint0_linear_10_42" x1="82.5" y1="13" x2="115.5" y2="42.5" gradientUnits="userSpaceOnUse">
<stop stop-color="#135E26"/>
<stop offset="1" stop-color="#C69D55"/>
</linearGradient>
</defs>
</svg>
