<svg width="162" height="209" viewBox="0 0 162 209" fill="none" xmlns="http://www.w3.org/2000/svg">
<rect opacity="0.5" x="0.591064" y="0.133667" width="160.98" height="208.477" rx="16" fill="#D9D9D9"/>
<path d="M12.5062 41.0564L12.5062 47.947H10.7463L10.7463 32.6743H12.5062V38.2822H12.6554C12.9239 37.6906 13.3265 37.2208 13.8635 36.8728C14.4054 36.5198 15.1263 36.3433 16.0261 36.3433C16.8067 36.3433 17.4903 36.4999 18.0769 36.8131C18.6636 37.1214 19.1185 37.5962 19.4416 38.2375C19.7697 38.8739 19.9338 39.6842 19.9338 40.6686V47.947H18.1739V40.7879C18.1739 39.8781 17.9377 39.1746 17.4654 38.6775C16.9981 38.1754 16.3493 37.9243 15.519 37.9243C14.9423 37.9243 14.4253 38.0461 13.9679 38.2897C13.5155 38.5333 13.1575 38.8888 12.894 39.3561C12.6355 39.8234 12.5062 40.3902 12.5062 41.0564ZM23.1535 47.947V36.4925H24.9135V47.947H23.1535ZM24.0484 34.5834C23.7054 34.5834 23.4096 34.4666 23.161 34.2329C22.9174 33.9992 22.7956 33.7183 22.7956 33.3902C22.7956 33.0621 22.9174 32.7812 23.161 32.5475C23.4096 32.3139 23.7054 32.197 24.0484 32.197C24.3914 32.197 24.6848 32.3139 24.9284 32.5475C25.177 32.7812 25.3012 33.0621 25.3012 33.3902C25.3012 33.7183 25.177 33.9992 24.9284 34.2329C24.6848 34.4666 24.3914 34.5834 24.0484 34.5834ZM32.7605 52.4811C31.9104 52.4811 31.1795 52.3717 30.568 52.153C29.9565 51.9392 29.4469 51.6558 29.0393 51.3028C28.6366 50.9548 28.3159 50.582 28.0773 50.1842L29.4792 49.1999C29.6383 49.4087 29.8397 49.6473 30.0833 49.9158C30.3269 50.1892 30.66 50.4254 31.0826 50.6242C31.5101 50.8281 32.0694 50.93 32.7605 50.93C33.6852 50.93 34.4484 50.7063 35.0499 50.2588C35.6515 49.8114 35.9523 49.1104 35.9523 48.1558V45.8291H35.8031C35.6739 46.0379 35.4899 46.2965 35.2513 46.6047C35.0176 46.908 34.6795 47.1789 34.2371 47.4175C33.7996 47.6512 33.2079 47.768 32.4622 47.768C31.5375 47.768 30.7072 47.5493 29.9714 47.1118C29.2406 46.6743 28.6614 46.0379 28.2339 45.2027C27.8113 44.3675 27.6 43.3533 27.6 42.1601C27.6 40.9868 27.8063 39.9651 28.2189 39.0951C28.6316 38.2201 29.2058 37.544 29.9416 37.0667C30.6774 36.5845 31.5275 36.3433 32.492 36.3433C33.2378 36.3433 33.8294 36.4676 34.2669 36.7162C34.7094 36.9598 35.0474 37.2382 35.2811 37.5514C35.5197 37.8597 35.7037 38.1132 35.8329 38.3121H36.0119V36.4925H37.7122V48.2751C37.7122 49.2595 37.4885 50.0599 37.041 50.6764C36.5986 51.2979 36.002 51.7528 35.2513 52.0411C34.5055 52.3345 33.6753 52.4811 32.7605 52.4811ZM32.7008 46.1871C33.4068 46.1871 34.0034 46.0255 34.4906 45.7023C34.9778 45.3792 35.3482 44.9144 35.6018 44.3078C35.8553 43.7013 35.9821 42.9754 35.9821 42.1303C35.9821 41.305 35.8578 40.5766 35.6092 39.9452C35.3606 39.3139 34.9927 38.8192 34.5055 38.4612C34.0183 38.1033 33.4167 37.9243 32.7008 37.9243C31.9551 37.9243 31.3337 38.1132 30.8365 38.4911C30.3443 38.8689 29.9739 39.376 29.7253 40.0124C29.4817 40.6487 29.3599 41.3547 29.3599 42.1303C29.3599 42.9257 29.4842 43.6292 29.7328 44.2407C29.9864 44.8472 30.3592 45.3245 30.8514 45.6725C31.3486 46.0156 31.965 46.1871 32.7008 46.1871ZM42.6937 41.0564V47.947H40.9338V32.6743H42.6937V38.2822H42.8429C43.1114 37.6906 43.514 37.2208 44.051 36.8728C44.5929 36.5198 45.3138 36.3433 46.2136 36.3433C46.9942 36.3433 47.6778 36.4999 48.2644 36.8131C48.8511 37.1214 49.306 37.5962 49.6291 38.2375C49.9572 38.8739 50.1213 39.6842 50.1213 40.6686V47.947H48.3614V40.7879C48.3614 39.8781 48.1252 39.1746 47.6529 38.6775C47.1856 38.1754 46.5368 37.9243 45.7065 37.9243C45.1298 37.9243 44.6128 38.0461 44.1554 38.2897C43.703 38.5333 43.345 38.8888 43.0815 39.3561C42.823 39.8234 42.6937 40.3902 42.6937 41.0564ZM59.9035 40.5791V42.2197H53.2217V40.5791H59.9035ZM64.7601 32.6743V47.947H63.0002V32.6743H64.7601ZM72.7862 48.1857C71.6825 48.1857 70.7304 47.942 69.93 47.4548C69.1345 46.9626 68.5205 46.2766 68.088 45.3966C67.6604 44.5117 67.4467 43.4825 67.4467 42.3092C67.4467 41.1359 67.6604 40.1019 68.088 39.207C68.5205 38.3071 69.1221 37.6061 69.8927 37.104C70.6683 36.5969 71.5731 36.3433 72.6072 36.3433C73.2038 36.3433 73.7929 36.4428 74.3746 36.6416C74.9563 36.8405 75.4857 37.1636 75.963 37.6111C76.4403 38.0536 76.8206 38.6402 77.104 39.371C77.3874 40.1019 77.5291 41.0017 77.5291 42.0706V42.8163H68.6995V41.295H75.7393C75.7393 40.6487 75.61 40.072 75.3515 39.5649C75.0979 39.0578 74.735 38.6576 74.2627 38.3643C73.7954 38.071 73.2435 37.9243 72.6072 37.9243C71.9062 37.9243 71.2996 38.0983 70.7876 38.4463C70.2805 38.7894 69.8902 39.2368 69.6168 39.7886C69.3433 40.3405 69.2066 40.9321 69.2066 41.5635V42.5777C69.2066 43.4428 69.3558 44.1761 69.6541 44.7776C69.9573 45.3742 70.3774 45.8291 70.9144 46.1423C71.4513 46.4506 72.0752 46.6047 72.7862 46.6047C73.2485 46.6047 73.6661 46.5401 74.039 46.4108C74.4168 46.2766 74.7425 46.0777 75.0159 45.8142C75.2894 45.5457 75.5006 45.2126 75.6498 44.8149L77.3501 45.2922C77.1711 45.8689 76.8703 46.376 76.4477 46.8135C76.0251 47.246 75.5031 47.5841 74.8817 47.8277C74.2602 48.0663 73.5617 48.1857 72.7862 48.1857ZM89.2241 36.4925L84.9883 47.947H83.1985L78.9627 36.4925H80.8718L84.0338 45.6203H84.1531L87.315 36.4925L89.2241 36.4925ZM95.9395 48.1857C94.8358 48.1857 93.8837 47.942 93.0833 47.4548C92.2878 46.9626 91.6739 46.2766 91.2413 45.3966C90.8138 44.5117 90.6 43.4825 90.6 42.3092C90.6 41.1359 90.8138 40.1019 91.2413 39.207C91.6739 38.3071 92.2754 37.6061 93.046 37.104C93.8216 36.5969 94.7264 36.3433 95.7605 36.3433C96.3571 36.3433 96.9462 36.4428 97.5279 36.6416C98.1096 36.8405 98.639 37.1636 99.1163 37.6111C99.5936 38.0536 99.9739 38.6402 100.257 39.371C100.541 40.1019 100.682 41.0017 100.682 42.0706V42.8163H91.8528V41.295H98.8926C98.8926 40.6487 98.7633 40.072 98.5048 39.5649C98.2513 39.0578 97.8883 38.6576 97.416 38.3643C96.9487 38.071 96.3969 37.9243 95.7605 37.9243C95.0595 37.9243 94.453 38.0983 93.9409 38.4463C93.4338 38.7894 93.0435 39.2368 92.7701 39.7886C92.4966 40.3405 92.3599 40.9321 92.3599 41.5635V42.5777C92.3599 43.4428 92.5091 44.1761 92.8074 44.7776C93.1106 45.3742 93.5307 45.8291 94.0677 46.1423C94.6046 46.4506 95.2285 46.6047 95.9395 46.6047C96.4018 46.6047 96.8194 46.5401 97.1923 46.4108C97.5702 46.2766 97.8958 46.0777 98.1692 45.8142C98.4427 45.5457 98.654 45.2126 98.8031 44.8149L100.503 45.2922C100.324 45.8689 100.024 46.376 99.6011 46.8135C99.1785 47.246 98.6564 47.5841 98.035 47.8277C97.4136 48.0663 96.715 48.1857 95.9395 48.1857ZM105.12 32.6743V47.947H103.36V32.6743H105.12ZM15.7278 62.4925V63.984H9.79175V62.4925H15.7278ZM11.5219 59.7482H13.2818L13.2818 70.6658C13.2818 71.1629 13.3539 71.5358 13.4981 71.7844C13.6472 72.028 13.8361 72.192 14.0648 72.2766C14.2985 72.3561 14.5446 72.3959 14.8031 72.3959C14.997 72.3959 15.1561 72.3859 15.2804 72.3661C15.4047 72.3412 15.5041 72.3213 15.5787 72.3064L15.9366 73.8874C15.8173 73.9321 15.6508 73.9769 15.437 74.0216C15.2232 74.0713 14.9523 74.0962 14.6241 74.0962C14.127 74.0962 13.6398 73.9893 13.1625 73.7755C12.6902 73.5617 12.2974 73.2361 11.9842 72.7986C11.676 72.3611 11.5219 71.8092 11.5219 71.143L11.5219 59.7482ZM18.3752 73.947V62.4925H20.1351V73.947H18.3752ZM19.2701 60.5834C18.927 60.5834 18.6312 60.4666 18.3827 60.2329C18.139 59.9992 18.0172 59.7183 18.0172 59.3902C18.0172 59.0621 18.139 58.7812 18.3827 58.5475C18.6312 58.3139 18.927 58.197 19.2701 58.197C19.6131 58.197 19.9064 58.3139 20.1501 58.5475C20.3986 58.7812 20.5229 59.0621 20.5229 59.3902C20.5229 59.7183 20.3986 59.9992 20.1501 60.2329C19.9064 60.4666 19.6131 60.5834 19.2701 60.5834ZM23.3586 78.2425L23.3586 62.4925H25.0589V64.3121H25.2677C25.397 64.1132 25.5759 63.8597 25.8046 63.5514C26.0383 63.2382 26.3714 62.9598 26.8039 62.7162C27.2414 62.4676 27.833 62.3433 28.5788 62.3433C29.5433 62.3433 30.3934 62.5845 31.1292 63.0667C31.865 63.5489 32.4392 64.2325 32.8519 65.1175C33.2645 66.0024 33.4708 67.0465 33.4708 68.2496C33.4708 69.4626 33.2645 70.5141 32.8519 71.4041C32.4392 72.289 31.8675 72.9751 31.1367 73.4623C30.4058 73.9445 29.5631 74.1857 28.6086 74.1857C27.8728 74.1857 27.2837 74.0639 26.8412 73.8202C26.3987 73.5717 26.0582 73.2908 25.8195 72.9776C25.5809 72.6594 25.397 72.3959 25.2677 72.1871H25.1185L25.1185 78.2425H23.3586ZM25.0887 68.2197C25.0887 69.0848 25.2155 69.8479 25.469 70.5092C25.7226 71.1654 26.093 71.68 26.5802 72.0528C27.0674 72.4207 27.664 72.6047 28.37 72.6047C29.1058 72.6047 29.7197 72.4108 30.2119 72.023C30.7091 71.6303 31.082 71.1033 31.3305 70.442C31.5841 69.7759 31.7109 69.0351 31.7109 68.2197C31.7109 67.4144 31.5866 66.6885 31.338 66.0422C31.0944 65.3909 30.724 64.8764 30.2269 64.4985C29.7347 64.1157 29.1157 63.9243 28.37 63.9243C27.6541 63.9243 27.0525 64.1058 26.5653 64.4687C26.0781 64.8266 25.7102 65.3288 25.4616 65.9751C25.213 66.6164 25.0887 67.3646 25.0887 68.2197ZM44.2691 65.0578L42.6881 65.5053C42.5887 65.2418 42.4421 64.9857 42.2482 64.7371C42.0592 64.4836 41.8007 64.2748 41.4726 64.1107C41.1445 63.9467 40.7244 63.8646 40.2123 63.8646C39.5113 63.8646 38.9271 64.0262 38.4598 64.3494C37.9974 64.6675 37.7663 65.0727 37.7663 65.5649C37.7663 66.0024 37.9254 66.3479 38.2435 66.6015C38.5617 66.855 39.0589 67.0663 39.735 67.2354L41.4353 67.653C42.4595 67.9016 43.2226 68.2819 43.7247 68.794C44.2269 69.3011 44.4779 69.9548 44.4779 70.7553C44.4779 71.4115 44.289 71.9982 43.9112 72.5152C43.5383 73.0322 43.0163 73.4399 42.3451 73.7382C41.6739 74.0365 40.8934 74.1857 40.0035 74.1857C38.8352 74.1857 37.8682 73.9321 37.1026 73.425C36.3369 72.9179 35.8522 72.1771 35.6484 71.2027L37.3188 70.7851C37.4779 71.4016 37.7787 71.8639 38.2212 72.1722C38.6686 72.4804 39.2528 72.6345 39.9737 72.6345C40.794 72.6345 41.4452 72.4605 41.9275 72.1125C42.4147 71.7595 42.6583 71.3369 42.6583 70.8447C42.6583 70.447 42.5191 70.1139 42.2407 69.8455C41.9623 69.572 41.5347 69.3682 40.958 69.234L39.0489 68.7865C37.9999 68.5379 37.2293 68.1526 36.7371 67.6306C36.2499 67.1036 36.0063 66.4449 36.0063 65.6544C36.0063 65.0081 36.1878 64.4364 36.5507 63.9392C36.9186 63.442 37.4183 63.0518 38.0496 62.7684C38.686 62.485 39.4069 62.3433 40.2123 62.3433C41.3458 62.3433 42.2357 62.5919 42.882 63.0891C43.5333 63.5862 43.9957 64.2425 44.2691 65.0578ZM58.1343 62.4925V63.984H51.9595V62.4925H58.1343ZM53.809 73.947V60.9115C53.809 60.2553 53.9631 59.7084 54.2713 59.2709C54.5796 58.8334 54.9798 58.5053 55.472 58.2865C55.9642 58.0678 56.4837 57.9584 57.0306 57.9584C57.4631 57.9584 57.8161 57.9932 58.0895 58.0628C58.3629 58.1324 58.5668 58.197 58.701 58.2567L58.1939 59.778C58.1044 59.7482 57.9801 59.7109 57.821 59.6661C57.6669 59.6214 57.4631 59.599 57.2095 59.599C56.6279 59.599 56.2078 59.7457 55.9492 60.039C55.6957 60.3323 55.5689 60.7624 55.5689 61.3291V73.947H53.809ZM64.7825 74.1857C63.7484 74.1857 62.8411 73.9396 62.0606 73.4474C61.285 72.9552 60.6785 72.2666 60.241 71.3817C59.8084 70.4967 59.5922 69.4626 59.5922 68.2794C59.5922 67.0862 59.8084 66.0447 60.241 65.1548C60.6785 64.2648 61.285 63.5738 62.0606 63.0816C62.8411 62.5894 63.7484 62.3433 64.7825 62.3433C65.8166 62.3433 66.7214 62.5894 67.497 63.0816C68.2775 63.5738 68.8841 64.2648 69.3166 65.1548C69.7541 66.0447 69.9729 67.0862 69.9729 68.2794C69.9729 69.4626 69.7541 70.4967 69.3166 71.3817C68.8841 72.2666 68.2775 72.9552 67.497 73.4474C66.7214 73.9396 65.8166 74.1857 64.7825 74.1857ZM64.7825 72.6047C65.568 72.6047 66.2143 72.4033 66.7214 72.0006C67.2285 71.5979 67.6039 71.0685 67.8475 70.4122C68.0911 69.756 68.2129 69.045 68.2129 68.2794C68.2129 67.5138 68.0911 66.8004 67.8475 66.1391C67.6039 65.4779 67.2285 64.9435 66.7214 64.5358C66.2143 64.1281 65.568 63.9243 64.7825 63.9243C63.997 63.9243 63.3507 64.1281 62.8436 64.5358C62.3365 64.9435 61.9611 65.4779 61.7175 66.1391C61.4739 66.8004 61.3521 67.5138 61.3521 68.2794C61.3521 69.045 61.4739 69.756 61.7175 70.4122C61.9611 71.0685 62.3365 71.5979 62.8436 72.0006C63.3507 72.4033 63.997 72.6047 64.7825 72.6047ZM72.6594 73.947V62.4925L74.3597 62.4925V64.2226H74.479C74.6878 63.6558 75.0656 63.196 75.6125 62.843C76.1594 62.49 76.7759 62.3135 77.4619 62.3135C77.5912 62.3135 77.7528 62.316 77.9467 62.321C78.1406 62.3259 78.2872 62.3334 78.3867 62.3433V64.1331C78.327 64.1182 78.1903 64.0958 77.9765 64.066C77.7677 64.0312 77.5465 64.0138 77.3128 64.0138C76.756 64.0138 76.2588 64.1306 75.8213 64.3643C75.3888 64.593 75.0457 64.9112 74.7922 65.3188C74.5436 65.7215 74.4193 66.1814 74.4193 66.6984V73.947H72.6594ZM13.3415 99.947L9.85141 88.4925H11.7008L14.1767 97.2624H14.296L16.742 88.4925H18.6213L21.0375 97.2325H21.1568L23.6327 88.4925H25.4821L21.992 99.947H20.2619L17.7562 91.1473H17.5773L15.0716 99.947H13.3415ZM32.0726 100.186C31.0385 100.186 30.1311 99.9396 29.3506 99.4474C28.575 98.9552 27.9685 98.2666 27.531 97.3817C27.0985 96.4967 26.8822 95.4626 26.8822 94.2794C26.8822 93.0862 27.0985 92.0447 27.531 91.1548C27.9685 90.2648 28.575 89.5738 29.3506 89.0816C30.1311 88.5894 31.0385 88.3433 32.0726 88.3433C33.1066 88.3433 34.0115 88.5894 34.787 89.0816C35.5676 89.5738 36.1741 90.2648 36.6066 91.1548C37.0441 92.0447 37.2629 93.0862 37.2629 94.2794C37.2629 95.4626 37.0441 96.4967 36.6066 97.3817C36.1741 98.2666 35.5676 98.9552 34.787 99.4474C34.0115 99.9396 33.1066 100.186 32.0726 100.186ZM32.0726 98.6047C32.8581 98.6047 33.5044 98.4033 34.0115 98.0006C34.5186 97.5979 34.8939 97.0685 35.1375 96.4122C35.3811 95.756 35.503 95.045 35.503 94.2794C35.503 93.5138 35.3811 92.8004 35.1375 92.1391C34.8939 91.4779 34.5186 90.9435 34.0115 90.5358C33.5044 90.1281 32.8581 89.9243 32.0726 89.9243C31.287 89.9243 30.6407 90.1281 30.1336 90.5358C29.6265 90.9435 29.2512 91.4779 29.0076 92.1391C28.764 92.8004 28.6422 93.5138 28.6422 94.2794C28.6422 95.045 28.764 95.756 29.0076 96.4122C29.2512 97.0685 29.6265 97.5979 30.1336 98.0006C30.6407 98.4033 31.287 98.6047 32.0726 98.6047ZM39.9494 99.947V88.4925H41.6497V90.2226H41.769C41.9778 89.6558 42.3557 89.196 42.9025 88.843C43.4494 88.49 44.0659 88.3135 44.752 88.3135C44.8812 88.3135 45.0428 88.316 45.2367 88.321C45.4306 88.3259 45.5773 88.3334 45.6767 88.3433V90.1331C45.617 90.1182 45.4803 90.0958 45.2665 90.066C45.0577 90.0312 44.8365 90.0138 44.6028 90.0138C44.046 90.0138 43.5489 90.1306 43.1114 90.3643C42.6788 90.593 42.3358 90.9112 42.0822 91.3188C41.8337 91.7215 41.7094 92.1814 41.7094 92.6984V99.947H39.9494ZM49.4035 95.7709L49.3737 93.5933H49.7316L54.743 88.4925H56.9206L51.5811 93.8916H51.4319L49.4035 95.7709ZM47.7629 99.947L47.7629 84.6743H49.5228L49.5228 99.947H47.7629ZM55.0413 99.947L50.5669 94.2794L51.8197 93.0564L57.2785 99.947H55.0413ZM59.1857 104.242L59.1857 88.4925H60.886V90.3121H61.0948C61.2241 90.1132 61.4031 89.8597 61.6318 89.5514C61.8654 89.2382 62.1985 88.9598 62.6311 88.7162C63.0686 88.4676 63.6602 88.3433 64.4059 88.3433C65.3704 88.3433 66.2205 88.5845 66.9563 89.0667C67.6921 89.5489 68.2664 90.2325 68.679 91.1175C69.0916 92.0024 69.298 93.0465 69.298 94.2496C69.298 95.4626 69.0916 96.5141 68.679 97.4041C68.2664 98.289 67.6946 98.9751 66.9638 99.4623C66.233 99.9445 65.3903 100.186 64.4357 100.186C63.7 100.186 63.1108 100.064 62.6683 99.8202C62.2259 99.5717 61.8853 99.2908 61.6467 98.9776C61.408 98.6594 61.2241 98.3959 61.0948 98.1871H60.9457V104.242H59.1857ZM60.9159 94.2197C60.9159 95.0848 61.0426 95.8479 61.2962 96.5092C61.5497 97.1654 61.9201 97.68 62.4073 98.0528C62.8946 98.4207 63.4911 98.6047 64.1971 98.6047C64.9329 98.6047 65.5469 98.4108 66.0391 98.023C66.5362 97.6303 66.9091 97.1033 67.1577 96.442C67.4112 95.7759 67.538 95.0351 67.538 94.2197C67.538 93.4144 67.4137 92.6885 67.1652 92.0422C66.9215 91.3909 66.5512 90.8764 66.054 90.4985C65.5618 90.1157 64.9428 89.9243 64.1971 89.9243C63.4812 89.9243 62.8796 90.1058 62.3924 90.4687C61.9052 90.8266 61.5373 91.3288 61.2887 91.9751C61.0402 92.6164 60.9159 93.3646 60.9159 94.2197ZM73.7426 84.6743V99.947H71.9826V84.6743H73.7426ZM80.3368 100.215C79.6109 100.215 78.9522 100.079 78.3606 99.8053C77.7689 99.5269 77.2991 99.1267 76.9511 98.6047C76.6031 98.0777 76.4291 97.4413 76.4291 96.6956C76.4291 96.0394 76.5583 95.5074 76.8169 95.0997C77.0754 94.6871 77.4209 94.3639 77.8534 94.1303C78.286 93.8966 78.7633 93.7226 79.2853 93.6082C79.8123 93.4889 80.3417 93.3945 80.8737 93.3249C81.5697 93.2354 82.134 93.1683 82.5665 93.1235C83.004 93.0738 83.3222 92.9918 83.5211 92.8774C83.7249 92.7631 83.8268 92.5642 83.8268 92.2808V92.2212C83.8268 91.4854 83.6255 90.9136 83.2228 90.506C82.825 90.0983 82.221 89.8945 81.4106 89.8945C80.5704 89.8945 79.9117 90.0784 79.4344 90.4463C78.9571 90.8142 78.6216 91.207 78.4277 91.6246L76.7572 91.028C77.0555 90.332 77.4532 89.7901 77.9504 89.4023C78.4525 89.0095 78.9994 88.7361 79.591 88.582C80.1876 88.4229 80.7743 88.3433 81.351 88.3433C81.7189 88.3433 82.1414 88.3881 82.6187 88.4776C83.101 88.5621 83.5658 88.7386 84.0133 89.007C84.4657 89.2755 84.841 89.6807 85.1393 90.2226C85.4376 90.7645 85.5868 91.4903 85.5868 92.4001V99.947H83.8268V98.3959H83.7373C83.618 98.6445 83.4191 98.9104 83.1407 99.1938C82.8623 99.4772 82.4919 99.7183 82.0296 99.9172C81.5672 100.116 81.003 100.215 80.3368 100.215ZM80.6052 98.6345C81.3012 98.6345 81.8879 98.4978 82.3652 98.2244C82.8474 97.9509 83.2103 97.5979 83.4539 97.1654C83.7025 96.7329 83.8268 96.278 83.8268 95.8007V94.1899C83.7522 94.2794 83.5882 94.3614 83.3346 94.436C83.086 94.5056 82.7977 94.5678 82.4696 94.6224C82.1464 94.6722 81.8307 94.7169 81.5225 94.7567C81.2192 94.7915 80.9731 94.8213 80.7842 94.8462C80.3268 94.9058 79.8993 95.0028 79.5015 95.137C79.1088 95.2663 78.7906 95.4626 78.547 95.7261C78.3083 95.9847 78.189 96.3376 78.189 96.7851C78.189 97.3966 78.4152 97.859 78.8677 98.1722C79.325 98.4804 79.9042 98.6345 80.6052 98.6345ZM93.4524 100.186C92.3786 100.186 91.4539 99.9321 90.6783 99.425C89.9027 98.9179 89.3061 98.2194 88.8885 97.3295C88.4709 96.4396 88.2621 95.4229 88.2621 94.2794C88.2621 93.1161 88.4759 92.0894 88.9034 91.1995C89.336 90.3046 89.9375 89.6061 90.7081 89.104C91.4837 88.5969 92.3885 88.3433 93.4226 88.3433C94.228 88.3433 94.9539 88.4925 95.6002 88.7908C96.2465 89.0891 96.7759 89.5067 97.1886 90.0436C97.6012 90.5805 97.8573 91.207 97.9567 91.9229H96.1968C96.0625 91.4009 95.7642 90.9385 95.3019 90.5358C94.8445 90.1281 94.228 89.9243 93.4524 89.9243C92.7664 89.9243 92.1648 90.1033 91.6477 90.4612C91.1357 90.8142 90.7355 91.3139 90.4471 91.9602C90.1637 92.6015 90.022 93.3547 90.022 94.2197C90.022 95.1047 90.1612 95.8753 90.4397 96.5315C90.723 97.1878 91.1208 97.6974 91.6328 98.0603C92.1499 98.4232 92.7564 98.6047 93.4524 98.6047C93.9098 98.6047 94.325 98.5251 94.6978 98.3661C95.0707 98.207 95.3864 97.9783 95.6449 97.68C95.9034 97.3817 96.0874 97.0237 96.1968 96.6061H97.9567C97.8573 97.2822 97.6112 97.8913 97.2184 98.4332C96.8306 98.9701 96.3161 99.3977 95.6747 99.7158C95.0384 100.029 94.2976 100.186 93.4524 100.186ZM105.332 100.186C104.228 100.186 103.276 99.942 102.476 99.4548C101.68 98.9626 101.066 98.2766 100.634 97.3966C100.206 96.5117 99.9926 95.4825 99.9926 94.3092C99.9926 93.1359 100.206 92.1019 100.634 91.207C101.066 90.3071 101.668 89.6061 102.439 89.104C103.214 88.5969 104.119 88.3433 105.153 88.3433C105.75 88.3433 106.339 88.4428 106.92 88.6416C107.502 88.8405 108.032 89.1636 108.509 89.6111C108.986 90.0536 109.366 90.6402 109.65 91.371C109.933 92.1019 110.075 93.0017 110.075 94.0706V94.8163H101.245V93.295H108.285C108.285 92.6487 108.156 92.072 107.897 91.5649C107.644 91.0578 107.281 90.6576 106.809 90.3643C106.341 90.071 105.789 89.9243 105.153 89.9243C104.452 89.9243 103.846 90.0983 103.333 90.4463C102.826 90.7894 102.436 91.2368 102.163 91.7886C101.889 92.3405 101.753 92.9321 101.753 93.5635V94.5777C101.753 95.4428 101.902 96.1761 102.2 96.7776C102.503 97.3742 102.923 97.8291 103.46 98.1423C103.997 98.4506 104.621 98.6047 105.332 98.6047C105.794 98.6047 106.212 98.5401 106.585 98.4108C106.963 98.2766 107.288 98.0777 107.562 97.8142C107.835 97.5457 108.047 97.2126 108.196 96.8149L109.896 97.2922C109.717 97.8689 109.416 98.376 108.994 98.8135C108.571 99.246 108.049 99.5841 107.428 99.8277C106.806 100.066 106.108 100.186 105.332 100.186Z" fill="white"/>
<path d="M9.90341 193V192.233L12.7841 189.08C13.1222 188.71 13.4006 188.389 13.6193 188.116C13.8381 187.841 14 187.582 14.1051 187.341C14.2131 187.097 14.267 186.841 14.267 186.574C14.267 186.267 14.1932 186.001 14.0455 185.777C13.9006 185.553 13.7017 185.379 13.4489 185.257C13.196 185.135 12.9119 185.074 12.5966 185.074C12.2614 185.074 11.9688 185.143 11.7188 185.283C11.4716 185.419 11.2798 185.611 11.1435 185.858C11.0099 186.105 10.9432 186.395 10.9432 186.727H9.9375C9.9375 186.216 10.0554 185.767 10.2912 185.381C10.527 184.994 10.848 184.693 11.2543 184.477C11.6634 184.261 12.1222 184.153 12.6307 184.153C13.142 184.153 13.5952 184.261 13.9901 184.477C14.3849 184.693 14.6946 184.984 14.919 185.351C15.1435 185.717 15.2557 186.125 15.2557 186.574C15.2557 186.895 15.1974 187.209 15.081 187.516C14.9673 187.82 14.7685 188.159 14.4844 188.534C14.2031 188.906 13.8125 189.361 13.3125 189.898L11.3523 191.994V192.062H15.4091V193H9.90341ZM19.8963 193.119C19.3963 193.119 18.946 193.02 18.5455 192.821C18.1449 192.622 17.8239 192.349 17.5824 192.003C17.3409 191.656 17.2088 191.261 17.1861 190.818H18.2088C18.2486 191.213 18.4276 191.54 18.7457 191.798C19.0668 192.054 19.4503 192.182 19.8963 192.182C20.2543 192.182 20.5724 192.098 20.8509 191.93C21.1321 191.763 21.3523 191.533 21.5114 191.24C21.6733 190.945 21.7543 190.611 21.7543 190.239C21.7543 189.858 21.6705 189.518 21.5028 189.22C21.3381 188.919 21.1108 188.682 20.821 188.509C20.5313 188.335 20.2003 188.247 19.8281 188.244C19.5611 188.241 19.2869 188.283 19.0057 188.368C18.7244 188.45 18.4929 188.557 18.3111 188.688L17.3224 188.568L17.8509 184.273H22.3849V185.21H18.7372L18.4304 187.784H18.4815C18.6605 187.642 18.8849 187.524 19.1548 187.43C19.4247 187.337 19.706 187.29 19.9986 187.29C20.5327 187.29 21.0085 187.418 21.4261 187.673C21.8466 187.926 22.1761 188.273 22.4148 188.713C22.6562 189.153 22.777 189.656 22.777 190.222C22.777 190.778 22.652 191.276 22.402 191.713C22.1548 192.148 21.8139 192.491 21.3793 192.744C20.9446 192.994 20.4503 193.119 19.8963 193.119ZM27.8619 193V186.455H28.8335V187.477H28.9187C29.055 187.128 29.2752 186.857 29.5792 186.663C29.8832 186.467 30.2482 186.369 30.6744 186.369C31.1062 186.369 31.4656 186.467 31.7525 186.663C32.0423 186.857 32.2681 187.128 32.43 187.477H32.4982C32.6658 187.139 32.9173 186.871 33.2525 186.672C33.5877 186.47 33.9897 186.369 34.4585 186.369C35.0437 186.369 35.5224 186.553 35.8945 186.919C36.2667 187.283 36.4528 187.849 36.4528 188.619V193H35.4471V188.619C35.4471 188.136 35.315 187.791 35.0508 187.584C34.7866 187.376 34.4755 187.273 34.1175 187.273C33.6573 187.273 33.3008 187.412 33.0479 187.69C32.7951 187.966 32.6687 188.315 32.6687 188.739V193H31.646V188.517C31.646 188.145 31.5252 187.845 31.2837 187.618C31.0423 187.388 30.7312 187.273 30.3505 187.273C30.0891 187.273 29.8448 187.342 29.6175 187.482C29.3931 187.621 29.2113 187.814 29.0721 188.061C28.9357 188.305 28.8675 188.588 28.8675 188.909V193H27.8619ZM38.2915 193V186.455H39.2972V193H38.2915ZM38.8029 185.364C38.6069 185.364 38.4379 185.297 38.2958 185.163C38.1566 185.03 38.087 184.869 38.087 184.682C38.087 184.494 38.1566 184.334 38.2958 184.2C38.4379 184.067 38.6069 184 38.8029 184C38.9989 184 39.1665 184.067 39.3058 184.2C39.4478 184.334 39.5188 184.494 39.5188 184.682C39.5188 184.869 39.4478 185.03 39.3058 185.163C39.1665 185.297 38.9989 185.364 38.8029 185.364ZM42.1449 189.062V193H41.1392V186.455H42.1108V187.477H42.196C42.3494 187.145 42.5824 186.878 42.8949 186.676C43.2074 186.472 43.6108 186.369 44.1051 186.369C44.5483 186.369 44.9361 186.46 45.2685 186.642C45.6009 186.821 45.8594 187.094 46.044 187.46C46.2287 187.824 46.321 188.284 46.321 188.841V193H45.3153V188.909C45.3153 188.395 45.1818 187.994 44.9148 187.707C44.6477 187.418 44.2813 187.273 43.8153 187.273C43.4943 187.273 43.2074 187.342 42.9545 187.482C42.7045 187.621 42.5071 187.824 42.3622 188.091C42.2173 188.358 42.1449 188.682 42.1449 189.062ZM52.2667 193.068C52.0565 193.068 51.8761 192.993 51.7255 192.842C51.5749 192.692 51.4996 192.511 51.4996 192.301C51.4996 192.091 51.5749 191.911 51.7255 191.76C51.8761 191.609 52.0565 191.534 52.2667 191.534C52.4769 191.534 52.6573 191.609 52.8079 191.76C52.9585 191.911 53.0337 192.091 53.0337 192.301C53.0337 192.44 52.9982 192.568 52.9272 192.685C52.859 192.801 52.7667 192.895 52.6502 192.966C52.5366 193.034 52.4087 193.068 52.2667 193.068ZM63.1225 186.455C63.0714 186.023 62.864 185.688 62.5004 185.449C62.1367 185.21 61.6907 185.091 61.1623 185.091C60.7759 185.091 60.4379 185.153 60.1481 185.278C59.8612 185.403 59.6367 185.575 59.4748 185.794C59.3157 186.013 59.2362 186.261 59.2362 186.54C59.2362 186.773 59.2915 186.973 59.4023 187.141C59.516 187.305 59.6609 187.443 59.837 187.554C60.0131 187.662 60.1978 187.751 60.391 187.822C60.5842 187.891 60.7617 187.946 60.9237 187.989L61.81 188.227C62.0373 188.287 62.2901 188.369 62.5685 188.474C62.8498 188.58 63.1183 188.723 63.3739 188.905C63.6325 189.084 63.8455 189.314 64.0131 189.595C64.1808 189.876 64.2646 190.222 64.2646 190.631C64.2646 191.102 64.141 191.528 63.8938 191.909C63.6495 192.29 63.2915 192.592 62.82 192.817C62.3512 193.041 61.7816 193.153 61.1112 193.153C60.4862 193.153 59.945 193.053 59.4876 192.851C59.033 192.649 58.6751 192.368 58.4137 192.007C58.1552 191.646 58.0089 191.227 57.9748 190.75H59.0657C59.0941 191.08 59.2049 191.352 59.3981 191.568C59.5941 191.781 59.8413 191.94 60.1396 192.045C60.4407 192.148 60.7646 192.199 61.1112 192.199C61.5146 192.199 61.8768 192.134 62.1978 192.003C62.5188 191.869 62.7731 191.685 62.9606 191.449C63.1481 191.21 63.2418 190.932 63.2418 190.614C63.2418 190.324 63.1609 190.088 62.9989 189.906C62.837 189.724 62.6239 189.577 62.3597 189.463C62.0955 189.349 61.81 189.25 61.5032 189.165L60.4293 188.858C59.7475 188.662 59.2077 188.382 58.81 188.018C58.4123 187.655 58.2134 187.179 58.2134 186.591C58.2134 186.102 58.3455 185.676 58.6097 185.312C58.8768 184.946 59.2347 184.662 59.6836 184.46C60.1353 184.256 60.6396 184.153 61.1964 184.153C61.7589 184.153 62.2589 184.254 62.6964 184.456C63.1339 184.655 63.4805 184.928 63.7362 185.274C63.9947 185.621 64.131 186.014 64.1452 186.455H63.1225ZM68.6101 193.136C67.9794 193.136 67.4354 192.997 66.978 192.719C66.5234 192.438 66.1726 192.045 65.9254 191.543C65.6811 191.037 65.5589 190.449 65.5589 189.778C65.5589 189.108 65.6811 188.517 65.9254 188.006C66.1726 187.491 66.5163 187.091 66.9567 186.804C67.3999 186.514 67.9169 186.369 68.5078 186.369C68.8487 186.369 69.1854 186.426 69.5178 186.54C69.8501 186.653 70.1527 186.838 70.4254 187.094C70.6982 187.347 70.9155 187.682 71.0774 188.099C71.2393 188.517 71.3203 189.031 71.3203 189.642V190.068H66.2749V189.199H70.2976C70.2976 188.83 70.2237 188.5 70.076 188.21C69.9311 187.92 69.7237 187.692 69.4538 187.524C69.1868 187.357 68.8714 187.273 68.5078 187.273C68.1072 187.273 67.7607 187.372 67.468 187.571C67.1783 187.767 66.9553 188.023 66.799 188.338C66.6428 188.653 66.5646 188.991 66.5646 189.352V189.932C66.5646 190.426 66.6499 190.845 66.8203 191.189C66.9936 191.53 67.2337 191.79 67.5405 191.969C67.8473 192.145 68.2038 192.233 68.6101 192.233C68.8743 192.233 69.1129 192.196 69.326 192.122C69.5419 192.045 69.728 191.932 69.8842 191.781C70.0405 191.628 70.1612 191.437 70.2464 191.21L71.218 191.483C71.1158 191.812 70.9439 192.102 70.7024 192.352C70.4609 192.599 70.1626 192.793 69.8075 192.932C69.4524 193.068 69.0533 193.136 68.6101 193.136ZM77.4865 187.92L76.5831 188.176C76.5263 188.026 76.4425 187.879 76.3317 187.737C76.2237 187.592 76.076 187.473 75.8885 187.379C75.701 187.286 75.4609 187.239 75.1683 187.239C74.7678 187.239 74.4339 187.331 74.1669 187.516C73.9027 187.697 73.7706 187.929 73.7706 188.21C73.7706 188.46 73.8615 188.658 74.0433 188.803C74.2251 188.947 74.5092 189.068 74.8956 189.165L75.8672 189.403C76.4524 189.545 76.8885 189.763 77.1754 190.055C77.4624 190.345 77.6058 190.719 77.6058 191.176C77.6058 191.551 77.4979 191.886 77.282 192.182C77.0689 192.477 76.7706 192.71 76.3871 192.881C76.0036 193.051 75.5575 193.136 75.049 193.136C74.3814 193.136 73.8288 192.991 73.3913 192.702C72.9538 192.412 72.6768 191.989 72.5604 191.432L73.5149 191.193C73.6058 191.545 73.7777 191.81 74.0305 191.986C74.2862 192.162 74.62 192.25 75.032 192.25C75.5007 192.25 75.8729 192.151 76.1484 191.952C76.4268 191.75 76.5661 191.509 76.5661 191.227C76.5661 191 76.4865 190.81 76.3274 190.656C76.1683 190.5 75.924 190.384 75.5945 190.307L74.5036 190.051C73.9041 189.909 73.4638 189.689 73.1825 189.391C72.9041 189.089 72.7649 188.713 72.7649 188.261C72.7649 187.892 72.8686 187.565 73.076 187.281C73.2862 186.997 73.5717 186.774 73.9325 186.612C74.2962 186.45 74.7081 186.369 75.1683 186.369C75.8161 186.369 76.3246 186.511 76.6939 186.795C77.0661 187.08 77.3303 187.455 77.4865 187.92ZM83.756 187.92L82.8526 188.176C82.7958 188.026 82.712 187.879 82.6012 187.737C82.4933 187.592 82.3455 187.473 82.158 187.379C81.9705 187.286 81.7305 187.239 81.4379 187.239C81.0373 187.239 80.7035 187.331 80.4364 187.516C80.1722 187.697 80.0401 187.929 80.0401 188.21C80.0401 188.46 80.131 188.658 80.3129 188.803C80.4947 188.947 80.7788 189.068 81.1651 189.165L82.1367 189.403C82.7219 189.545 83.158 189.763 83.445 190.055C83.7319 190.345 83.8754 190.719 83.8754 191.176C83.8754 191.551 83.7674 191.886 83.5515 192.182C83.3384 192.477 83.0401 192.71 82.6566 192.881C82.2731 193.051 81.8271 193.136 81.3185 193.136C80.6509 193.136 80.0984 192.991 79.6609 192.702C79.2234 192.412 78.9464 191.989 78.8299 191.432L79.7844 191.193C79.8754 191.545 80.0472 191.81 80.3001 191.986C80.5558 192.162 80.8896 192.25 81.3015 192.25C81.7702 192.25 82.1424 192.151 82.418 191.952C82.6964 191.75 82.8356 191.509 82.8356 191.227C82.8356 191 82.756 190.81 82.5969 190.656C82.4379 190.5 82.1935 190.384 81.864 190.307L80.7731 190.051C80.1737 189.909 79.7333 189.689 79.4521 189.391C79.1737 189.089 79.0344 188.713 79.0344 188.261C79.0344 187.892 79.1381 187.565 79.3455 187.281C79.5558 186.997 79.8413 186.774 80.2021 186.612C80.5657 186.45 80.9776 186.369 81.4379 186.369C82.0856 186.369 82.5941 186.511 82.9634 186.795C83.3356 187.08 83.5998 187.455 83.756 187.92ZM85.3892 193V186.455H86.3949V193H85.3892ZM85.9006 185.364C85.7045 185.364 85.5355 185.297 85.3935 185.163C85.2543 185.03 85.1847 184.869 85.1847 184.682C85.1847 184.494 85.2543 184.334 85.3935 184.2C85.5355 184.067 85.7045 184 85.9006 184C86.0966 184 86.2642 184.067 86.4034 184.2C86.5455 184.334 86.6165 184.494 86.6165 184.682C86.6165 184.869 86.5455 185.03 86.4034 185.163C86.2642 185.297 86.0966 185.364 85.9006 185.364ZM90.896 193.136C90.305 193.136 89.7866 192.996 89.3406 192.714C88.8974 192.433 88.5508 192.04 88.3008 191.534C88.0536 191.028 87.93 190.437 87.93 189.761C87.93 189.08 88.0536 188.484 88.3008 187.976C88.5508 187.467 88.8974 187.072 89.3406 186.791C89.7866 186.51 90.305 186.369 90.896 186.369C91.4869 186.369 92.0039 186.51 92.4471 186.791C92.8931 187.072 93.2397 187.467 93.4869 187.976C93.7369 188.484 93.8619 189.08 93.8619 189.761C93.8619 190.437 93.7369 191.028 93.4869 191.534C93.2397 192.04 92.8931 192.433 92.4471 192.714C92.0039 192.996 91.4869 193.136 90.896 193.136ZM90.896 192.233C91.3448 192.233 91.7141 192.118 92.0039 191.888C92.2937 191.658 92.5082 191.355 92.6474 190.98C92.7866 190.605 92.8562 190.199 92.8562 189.761C92.8562 189.324 92.7866 188.916 92.6474 188.538C92.5082 188.161 92.2937 187.855 92.0039 187.622C91.7141 187.389 91.3448 187.273 90.896 187.273C90.4471 187.273 90.0778 187.389 89.788 187.622C89.4982 187.855 89.2837 188.161 89.1445 188.538C89.0053 188.916 88.9357 189.324 88.9357 189.761C88.9357 190.199 89.0053 190.605 89.1445 190.98C89.2837 191.355 89.4982 191.658 89.788 191.888C90.0778 192.118 90.4471 192.233 90.896 192.233ZM96.4027 189.062V193H95.397V186.455H96.3686V187.477H96.4538C96.6072 187.145 96.8402 186.878 97.1527 186.676C97.4652 186.472 97.8686 186.369 98.3629 186.369C98.8061 186.369 99.1939 186.46 99.5263 186.642C99.8587 186.821 100.117 187.094 100.302 187.46C100.487 187.824 100.579 188.284 100.579 188.841V193H99.5732V188.909C99.5732 188.395 99.4396 187.994 99.1726 187.707C98.9055 187.418 98.5391 187.273 98.0732 187.273C97.7521 187.273 97.4652 187.342 97.2124 187.482C96.9624 187.621 96.7649 187.824 96.62 188.091C96.4751 188.358 96.4027 188.682 96.4027 189.062Z" fill="white"/>
</svg>
